<?xml version="1.0" encoding="UTF-8" standalone="no"?>
<!DOCTYPE svg PUBLIC "-//W3C//DTD SVG 1.1//EN"
 "http://www.w3.org/Graphics/SVG/1.1/DTD/svg11.dtd">
<!-- Generated by graphviz version 2.47.0 (20210316.0004)
 -->
<!-- Title: dependencies Pages: 1 -->
<svg width="504pt" height="211pt"
 viewBox="0.00 0.00 504.00 211.00" xmlns="http://www.w3.org/2000/svg" xmlns:xlink="http://www.w3.org/1999/xlink">
<g id="graph0" class="graph" transform="scale(1 1) rotate(0) translate(4 207)">
<title>dependencies</title>
<polygon fill="white" stroke="transparent" points="-4,4 -4,-207 500,-207 500,4 -4,4"/>
<text text-anchor="start" x="227.01" y="-42.4" font-family="Times-12" font-weight="bold" font-size="14.00">Legend</text>
<polygon fill="#ffffb3" stroke="transparent" points="14,-10 14,-30 34,-30 34,-10 14,-10"/>
<text text-anchor="start" x="37.63" y="-15.4" font-family="Times-12" font-size="14.00"> &#160;Declarations</text>
<polygon fill="#8dd3c7" stroke="transparent" points="127,-10 127,-30 147,-30 147,-10 127,-10"/>
<text text-anchor="start" x="150.73" y="-15.4" font-family="Times-12" font-size="14.00"> &#160;Module</text>
<polygon fill="#80b1d3" stroke="transparent" points="213,-10 213,-30 233,-30 233,-10 213,-10"/>
<text text-anchor="start" x="236.78" y="-15.4" font-family="Times-12" font-size="14.00"> &#160;Bootstrap</text>
<polygon fill="#fdb462" stroke="transparent" points="310,-10 310,-30 330,-30 330,-10 310,-10"/>
<text text-anchor="start" x="333.67" y="-15.4" font-family="Times-12" font-size="14.00"> &#160;Providers</text>
<polygon fill="#fb8072" stroke="transparent" points="406,-10 406,-30 426,-30 426,-10 406,-10"/>
<text text-anchor="start" x="429.73" y="-15.4" font-family="Times-12" font-size="14.00"> &#160;Exports</text>
<g id="clust1" class="cluster">
<title>cluster_AppModule</title>
<polygon fill="none" stroke="black" stroke-dasharray="1,5" points="57,-70 57,-195 439,-195 439,-70 57,-70"/>
</g>
<g id="clust6" class="cluster">
<title>cluster_AppModule_providers</title>
<polygon fill="none" stroke="black" points="301,-78 301,-130 431,-130 431,-78 301,-78"/>
</g>
<g id="clust3" class="cluster">
<title>cluster_AppModule_imports</title>
<polygon fill="none" stroke="black" points="65,-78 65,-130 293,-130 293,-78 65,-78"/>
</g>
<!-- HealthModule -->
<g id="node1" class="node">
<title>HealthModule</title>
<polygon fill="#8dd3c7" stroke="black" points="285.37,-122 282.37,-126 261.37,-126 258.37,-122 188.63,-122 188.63,-86 285.37,-86 285.37,-122"/>
<text text-anchor="middle" x="237" y="-99.8" font-family="Times,serif" font-size="14.00">HealthModule</text>
</g>
<!-- AppModule -->
<g id="node3" class="node">
<title>AppModule</title>
<polygon fill="#8dd3c7" stroke="black" points="278.66,-187 275.66,-191 254.66,-191 251.66,-187 195.34,-187 195.34,-151 278.66,-151 278.66,-187"/>
<text text-anchor="middle" x="237" y="-164.8" font-family="Times,serif" font-size="14.00">AppModule</text>
</g>
<!-- HealthModule&#45;&gt;AppModule -->
<g id="edge1" class="edge">
<title>HealthModule&#45;&gt;AppModule</title>
<path fill="none" stroke="black" d="M237,-122.11C237,-122.11 237,-140.99 237,-140.99"/>
<polygon fill="black" stroke="black" points="233.5,-140.99 237,-150.99 240.5,-140.99 233.5,-140.99"/>
</g>
<!-- OrdersModule -->
<g id="node2" class="node">
<title>OrdersModule</title>
<polygon fill="#8dd3c7" stroke="black" points="170.64,-122 167.64,-126 146.64,-126 143.64,-122 73.36,-122 73.36,-86 170.64,-86 170.64,-122"/>
<text text-anchor="middle" x="122" y="-99.8" font-family="Times,serif" font-size="14.00">OrdersModule</text>
</g>
<!-- OrdersModule&#45;&gt;AppModule -->
<g id="edge2" class="edge">
<title>OrdersModule&#45;&gt;AppModule</title>
<path fill="none" stroke="black" d="M122,-122.11C122,-141.34 122,-169 122,-169 122,-169 185.16,-169 185.16,-169"/>
<polygon fill="black" stroke="black" points="185.16,-172.5 195.16,-169 185.16,-165.5 185.16,-172.5"/>
</g>
<!-- AppService -->
<g id="node4" class="node">
<title>AppService</title>
<ellipse fill="#fdb462" stroke="black" cx="366" cy="-104" rx="56.74" ry="18"/>
<text text-anchor="middle" x="366" y="-99.8" font-family="Times,serif" font-size="14.00">AppService</text>
</g>
<!-- AppService&#45;&gt;AppModule -->
<g id="edge3" class="edge">
<title>AppService&#45;&gt;AppModule</title>
<path fill="none" stroke="black" d="M366,-122.11C366,-141.34 366,-169 366,-169 366,-169 288.88,-169 288.88,-169"/>
<polygon fill="black" stroke="black" points="288.88,-165.5 278.88,-169 288.88,-172.5 288.88,-165.5"/>
</g>
</g>
</svg>
