<?xml version="1.0" encoding="UTF-8" standalone="no"?>
<!DOCTYPE svg PUBLIC "-//W3C//DTD SVG 1.1//EN"
 "http://www.w3.org/Graphics/SVG/1.1/DTD/svg11.dtd">
<!-- Generated by graphviz version 2.47.0 (20210316.0004)
 -->
<!-- Title: dependencies Pages: 1 -->
<svg width="504pt" height="287pt"
 viewBox="0.00 0.00 504.00 287.00" xmlns="http://www.w3.org/2000/svg" xmlns:xlink="http://www.w3.org/1999/xlink">
<g id="graph0" class="graph" transform="scale(1 1) rotate(0) translate(4 283)">
<title>dependencies</title>
<polygon fill="white" stroke="transparent" points="-4,4 -4,-283 500,-283 500,4 -4,4"/>
<text text-anchor="start" x="227.01" y="-42.4" font-family="Times-12" font-weight="bold" font-size="14.00">Legend</text>
<polygon fill="#ffffb3" stroke="transparent" points="14,-10 14,-30 34,-30 34,-10 14,-10"/>
<text text-anchor="start" x="37.63" y="-15.4" font-family="Times-12" font-size="14.00"> &#160;Declarations</text>
<polygon fill="#8dd3c7" stroke="transparent" points="127,-10 127,-30 147,-30 147,-10 127,-10"/>
<text text-anchor="start" x="150.73" y="-15.4" font-family="Times-12" font-size="14.00"> &#160;Module</text>
<polygon fill="#80b1d3" stroke="transparent" points="213,-10 213,-30 233,-30 233,-10 213,-10"/>
<text text-anchor="start" x="236.78" y="-15.4" font-family="Times-12" font-size="14.00"> &#160;Bootstrap</text>
<polygon fill="#fdb462" stroke="transparent" points="310,-10 310,-30 330,-30 330,-10 310,-10"/>
<text text-anchor="start" x="333.67" y="-15.4" font-family="Times-12" font-size="14.00"> &#160;Providers</text>
<polygon fill="#fb8072" stroke="transparent" points="406,-10 406,-30 426,-30 426,-10 406,-10"/>
<text text-anchor="start" x="429.73" y="-15.4" font-family="Times-12" font-size="14.00"> &#160;Exports</text>
<g id="clust1" class="cluster">
<title>cluster_AppModule</title>
<polygon fill="none" stroke="black" stroke-dasharray="1,5" points="57,-146 57,-271 439,-271 439,-146 57,-146"/>
</g>
<g id="clust3" class="cluster">
<title>cluster_AppModule_imports</title>
<polygon fill="none" stroke="black" points="203,-154 203,-206 431,-206 431,-154 203,-154"/>
</g>
<g id="clust6" class="cluster">
<title>cluster_AppModule_providers</title>
<polygon fill="none" stroke="black" points="65,-154 65,-206 195,-206 195,-154 65,-154"/>
</g>
<g id="clust13" class="cluster">
<title>cluster_OrdersModule</title>
<polygon fill="none" stroke="black" stroke-dasharray="1,5" points="100,-70 100,-138 392,-138 392,-70 100,-70"/>
</g>
<g id="clust18" class="cluster">
<title>cluster_OrdersModule_providers</title>
<polygon fill="none" stroke="black" points="108,-78 108,-130 384,-130 384,-78 108,-78"/>
</g>
<!-- HealthModule -->
<g id="node1" class="node">
<title>HealthModule</title>
<polygon fill="#8dd3c7" stroke="black" points="423.37,-198 420.37,-202 399.37,-202 396.37,-198 326.63,-198 326.63,-162 423.37,-162 423.37,-198"/>
<text text-anchor="middle" x="375" y="-175.8" font-family="Times,serif" font-size="14.00">HealthModule</text>
</g>
<!-- AppModule -->
<g id="node3" class="node">
<title>AppModule</title>
<polygon fill="#8dd3c7" stroke="black" points="301.66,-263 298.66,-267 277.66,-267 274.66,-263 218.34,-263 218.34,-227 301.66,-227 301.66,-263"/>
<text text-anchor="middle" x="260" y="-240.8" font-family="Times,serif" font-size="14.00">AppModule</text>
</g>
<!-- HealthModule&#45;&gt;AppModule -->
<g id="edge1" class="edge">
<title>HealthModule&#45;&gt;AppModule</title>
<path fill="none" stroke="black" d="M375,-198.11C375,-217.34 375,-245 375,-245 375,-245 311.84,-245 311.84,-245"/>
<polygon fill="black" stroke="black" points="311.84,-241.5 301.84,-245 311.84,-248.5 311.84,-241.5"/>
</g>
<!-- OrdersModule -->
<g id="node2" class="node">
<title>OrdersModule</title>
<polygon fill="#8dd3c7" stroke="black" points="308.64,-198 305.64,-202 284.64,-202 281.64,-198 211.36,-198 211.36,-162 308.64,-162 308.64,-198"/>
<text text-anchor="middle" x="260" y="-175.8" font-family="Times,serif" font-size="14.00">OrdersModule</text>
</g>
<!-- OrdersModule&#45;&gt;AppModule -->
<g id="edge2" class="edge">
<title>OrdersModule&#45;&gt;AppModule</title>
<path fill="none" stroke="black" d="M260,-198.11C260,-198.11 260,-216.99 260,-216.99"/>
<polygon fill="black" stroke="black" points="256.5,-216.99 260,-226.99 263.5,-216.99 256.5,-216.99"/>
</g>
<!-- AppService -->
<g id="node4" class="node">
<title>AppService</title>
<ellipse fill="#fdb462" stroke="black" cx="130" cy="-180" rx="56.74" ry="18"/>
<text text-anchor="middle" x="130" y="-175.8" font-family="Times,serif" font-size="14.00">AppService</text>
</g>
<!-- AppService&#45;&gt;AppModule -->
<g id="edge3" class="edge">
<title>AppService&#45;&gt;AppModule</title>
<path fill="none" stroke="black" d="M130,-198.11C130,-217.34 130,-245 130,-245 130,-245 208.15,-245 208.15,-245"/>
<polygon fill="black" stroke="black" points="208.15,-248.5 218.15,-245 208.15,-241.5 208.15,-248.5"/>
</g>
<!-- OrdersService -->
<g id="node5" class="node">
<title>OrdersService</title>
<ellipse fill="#fdb462" stroke="black" cx="310" cy="-104" rx="66.03" ry="18"/>
<text text-anchor="middle" x="310" y="-99.8" font-family="Times,serif" font-size="14.00">OrdersService</text>
</g>
<!-- OrdersService&#45;&gt;OrdersModule -->
<g id="edge4" class="edge">
<title>OrdersService&#45;&gt;OrdersModule</title>
<path fill="none" stroke="black" d="M276.28,-119.75C276.28,-119.75 276.28,-151.87 276.28,-151.87"/>
<polygon fill="black" stroke="black" points="272.78,-151.87 276.28,-161.87 279.78,-151.87 272.78,-151.87"/>
</g>
<!-- TaxService -->
<g id="node6" class="node">
<title>TaxService</title>
<ellipse fill="#fdb462" stroke="black" cx="171" cy="-104" rx="55.01" ry="18"/>
<text text-anchor="middle" x="171" y="-99.8" font-family="Times,serif" font-size="14.00">TaxService</text>
</g>
<!-- TaxService&#45;&gt;OrdersModule -->
<g id="edge5" class="edge">
<title>TaxService&#45;&gt;OrdersModule</title>
<path fill="none" stroke="black" d="M218.59,-113.32C218.59,-113.32 218.59,-151.89 218.59,-151.89"/>
<polygon fill="black" stroke="black" points="215.09,-151.89 218.59,-161.89 222.09,-151.89 215.09,-151.89"/>
</g>
</g>
</svg>
